<svg width="75" height="75" viewBox="0 0 75 75" fill="none" xmlns="http://www.w3.org/2000/svg">
<g clip-path="url(#clip0)">
<path d="M74.13 0H0V74.13H74.13V0Z" fill="white"/>
<g opacity="0.1">
<path opacity="0.1" d="M74.1244 72.3751V74.1244H72.3751" stroke="#20263C" stroke-miterlimit="10"/>
<path opacity="0.1" d="M69.0098 74.1243H3.42798" stroke="#20263C" stroke-miterlimit="10" stroke-dasharray="5.77 5.77"/>
<path opacity="0.1" d="M1.7493 74.1244H0V72.3751" stroke="#20263C" stroke-miterlimit="10"/>
<path opacity="0.1" d="M0 69.0104V3.42848" stroke="#20263C" stroke-miterlimit="10" stroke-dasharray="5.77 5.77"/>
<path opacity="0.1" d="M0 1.74931V0H1.7493" stroke="#20263C" stroke-miterlimit="10"/>
<path opacity="0.1" d="M5.10785 0H70.6954" stroke="#20263C" stroke-miterlimit="10" stroke-dasharray="5.77 5.77"/>
<path opacity="0.1" d="M72.3751 0H74.1244V1.74931" stroke="#20263C" stroke-miterlimit="10"/>
<path opacity="0.1" d="M74.124 5.10786V70.6954" stroke="#20263C" stroke-miterlimit="10" stroke-dasharray="5.77 5.77"/>
</g>
<path d="M36.7359 46.8456C35.6009 46.8506 34.4809 46.5756 33.4678 46.0433C32.4547 45.5108 31.5772 44.7362 30.9076 43.7828L26.2401 46.5717C26.4177 46.7847 26.6279 46.9656 26.8624 47.107L35.1681 52.0871C35.6536 52.3451 36.1909 52.4796 36.7359 52.4796C37.281 52.4796 37.8183 52.3451 38.3037 52.0871L46.6095 47.107C46.8439 46.9656 47.0542 46.7847 47.2318 46.5717L42.5763 43.733C41.9106 44.6973 41.0336 45.4826 40.0179 46.0239C39.0022 46.5652 37.8771 46.8469 36.7359 46.8456Z" fill="#F44A25"/>
<path d="M29.427 39.3297C29.4312 37.5591 30.1194 35.8521 31.36 34.5349C32.6005 33.2178 34.3065 32.3828 36.1518 32.1897V26.8227C35.8718 26.8783 35.6025 26.9746 35.3532 27.1083L26.6947 31.8684C26.224 32.1687 25.8327 32.5688 25.5514 33.0375C25.27 33.5062 25.1062 34.0305 25.0728 34.5697V44.0897C25.0766 44.3644 25.1228 44.6371 25.21 44.899L30.0758 42.2215C29.6503 41.3113 29.4293 40.3263 29.427 39.3297Z" fill="#F44A25"/>
<path d="M46.8609 31.8651L38.658 27.1082C38.422 26.9745 38.1668 26.8782 37.9016 26.8227V32.1742C39.0159 32.3013 40.0851 32.6898 41.023 33.3085C41.9608 33.9273 42.7412 34.759 43.3012 35.7366C43.8612 36.7142 44.1852 37.8105 44.2471 38.9372C44.3091 40.0639 44.1072 41.1894 43.6577 42.2232L48.2675 44.899C48.35 44.6373 48.3938 44.3648 48.3974 44.0903V34.5765C48.3676 34.0357 48.2132 33.5092 47.9466 33.0387C47.6799 32.5681 47.3083 32.1664 46.8609 31.8651Z" fill="#F44A25"/>
<path d="M52.8365 27.0976L39.295 19.266C38.5009 18.8671 37.6246 18.6594 36.736 18.6594C35.8475 18.6594 34.9713 18.8671 34.1771 19.266L20.6356 27.0976C19.8923 27.5825 19.2735 28.2356 18.8289 29.0042C18.3844 29.7728 18.1268 30.6353 18.0767 31.522V47.185C18.1258 48.0736 18.383 48.9382 18.8275 49.7089C19.272 50.4796 19.8914 51.1349 20.6356 51.6217L34.1771 59.4534C34.9713 59.8523 35.8475 60.0599 36.736 60.0599C37.6246 60.0599 38.5009 59.8523 39.295 59.4534L52.8365 51.6217C53.5807 51.1349 54.2001 50.4796 54.6446 49.7089C55.0891 48.9382 55.3463 48.0736 55.3954 47.185V31.522C55.3453 30.6353 55.0877 29.7728 54.6432 29.0042C54.1986 28.2356 53.5798 27.5825 52.8365 27.0976ZM51.0978 45.3834C51.0581 46.066 50.8591 46.7298 50.5167 47.3215C50.1744 47.9132 49.6983 48.4163 49.1266 48.7906L38.695 54.8205C38.0856 55.1285 37.4126 55.2891 36.7299 55.2891C36.0473 55.2891 35.3741 55.1285 34.7649 54.8205L24.3455 48.7906C23.7738 48.4163 23.2977 47.9132 22.9554 47.3215C22.613 46.7298 22.414 46.066 22.3743 45.3834V33.3359C22.414 32.6532 22.613 31.9895 22.9554 31.3978C23.2977 30.8061 23.7738 30.3029 24.3455 29.9287L34.7526 23.8988C35.3619 23.5907 36.035 23.4302 36.7177 23.4302C37.4003 23.4302 38.0734 23.5907 38.6828 23.8988L49.1143 29.9287C49.6883 30.3016 50.1668 30.8042 50.5113 31.3959C50.8558 31.9877 51.0567 32.6522 51.0978 33.3359V45.3834Z" fill="#F44A25"/>
<path d="M31.4885 39.3598C31.4885 40.34 31.7963 41.2983 32.3729 42.1134C32.9496 42.9285 33.7692 43.5637 34.7282 43.9389C35.6871 44.314 36.7423 44.4121 37.7603 44.2209C38.7783 44.0297 39.7134 43.5577 40.4473 42.8645C41.1812 42.1713 41.6811 41.2882 41.8836 40.3267C42.086 39.3653 41.9821 38.3687 41.5849 37.4631C41.1877 36.5574 40.5152 35.7833 39.6521 35.2387C38.7891 34.6941 37.7744 34.4034 36.7365 34.4034C35.3447 34.4034 34.0098 34.9256 33.0256 35.8551C32.0414 36.7846 31.4885 38.0453 31.4885 39.3598Z" fill="#F44A25"/>
</g>
<defs>
<clipPath id="clip0">
<rect width="74.13" height="74.13" fill="white"/>
</clipPath>
</defs>
</svg>
